<svg width="67" height="51" viewBox="0 0 67 51" fill="none" xmlns="http://www.w3.org/2000/svg">
<path d="M56.1272 0.952449C55.7637 1.41767 57.9247 3.05001 58.011 6.89966C58.0726 9.64558 56.4181 12.2778 52.5646 13.6058C51.6052 13.9362 51.8067 14.8973 54.9477 14.8405C60.1878 14.7462 62.5872 11.7283 62.5921 8.43093C62.6002 2.94895 56.8527 0.024485 56.1272 0.952449ZM53.8412 14.1217C54.0941 13.8742 60.1871 11.9784 58.7858 5.33071C58.4512 3.74345 57.4616 1.98432 57.4063 1.95545C57.4436 1.92271 57.4436 1.95404 57.4461 1.97939C57.6912 1.95122 57.8733 2.11816 58.0469 2.22911C64.2565 6.21259 62.0357 14.756 53.8412 14.1217Z" fill="#38A1FF"/>
<path d="M64.2235 20.6588C64.7637 21.7544 64.7612 21.8562 64.9982 21.8903L66.1499 22.0576C66.4323 22.0988 66.545 22.445 66.3404 22.6443C65.4656 23.4966 65.3677 23.5251 65.4082 23.7615L65.6051 24.9081C65.6533 25.1892 65.3585 25.4037 65.1057 25.2709C64.0241 24.7021 63.9674 24.6179 63.7551 24.7292L62.725 25.2709C62.4728 25.404 62.1773 25.1892 62.2256 24.9081C62.4319 23.7044 62.4946 23.6237 62.3235 23.4565L61.4902 22.6443C61.2863 22.445 61.3983 22.0985 61.6807 22.0576C62.8901 21.8829 62.9856 21.9167 63.0912 21.7019L63.6065 20.6584C63.7325 20.4024 64.0974 20.4027 64.2235 20.6588Z" fill="#38A1FF"/>
<path d="M43.9547 6.97851C44.4949 8.07415 44.4925 8.17591 44.7295 8.21009L45.8811 8.37737C46.1635 8.41856 46.2762 8.76477 46.0716 8.96408C45.1968 9.81637 45.0989 9.84488 45.1394 10.0812L45.3363 11.2279C45.3845 11.5089 45.0897 11.7234 44.8369 11.5906C43.7553 11.0219 43.6987 10.9377 43.4863 11.049L42.4562 11.5906C42.204 11.7238 41.9085 11.5089 41.9568 11.2279C42.1632 10.0242 42.2258 9.94349 42.0547 9.77622L41.2214 8.96408C41.0175 8.76477 41.1295 8.41822 41.412 8.37737C42.6213 8.20268 42.7168 8.23649 42.8224 8.02166L43.3376 6.97818C43.4637 6.72212 43.8286 6.72245 43.9547 6.97851Z" fill="#38A1FF"/>
<path d="M17.4589 21.2037C17.9992 22.2993 17.9967 22.4011 18.2337 22.4353L19.3853 22.6025C19.6678 22.6438 19.7805 22.9899 19.5759 23.1893C18.7011 24.0415 18.6032 24.07 18.6437 24.3064L18.8405 25.4531C18.8888 25.7341 18.594 25.9486 18.3412 25.8158C17.2596 25.247 17.2029 25.1629 16.9905 25.2742L15.9604 25.8158C15.7083 25.9489 15.4128 25.7341 15.461 25.4531C15.6674 24.2493 15.7301 24.1687 15.5589 24.0014L14.7257 23.1893C14.5218 22.9899 14.6338 22.6434 14.9162 22.6025C16.1256 22.4278 16.2211 22.4617 16.3267 22.2468L16.8419 21.2033C16.968 20.9473 17.3329 20.9476 17.4589 21.2037Z" fill="#38A1FF"/>
<path d="M11.385 40.6382C11.9252 41.7338 11.9228 41.8356 12.1598 41.8697L13.3114 42.037C13.5938 42.0782 13.7065 42.4244 13.5019 42.6238C12.6271 43.476 12.5292 43.5046 12.5697 43.7409L12.7666 44.8875C12.8148 45.1686 12.52 45.3831 12.2672 45.2503C11.1856 44.6815 11.129 44.5973 10.9166 44.7086L9.88647 45.2503C9.6343 45.3834 9.33884 45.1686 9.38707 44.8875C9.59345 43.6838 9.65614 43.6032 9.48498 43.4359L8.65173 42.6238C8.44783 42.4244 8.5598 42.0779 8.84225 42.037C10.0516 41.8624 10.1471 41.8962 10.2527 41.6813L10.7679 40.6378C10.894 40.3818 11.2589 40.3822 11.385 40.6382Z" fill="#38A1FF"/>
<path d="M64.5759 34.7494C62.9827 33.3931 61.6793 34.4226 61.8075 33.808C62.3093 31.4048 59.7458 29.8428 57.1151 30.2782C56.5076 30.3789 56.2438 30.8444 56.036 30.5226C55.1158 29.0962 53.7743 28.725 52.1895 29.0332C51.0309 29.2586 50.6505 29.7538 50.4336 30.0711C50.6882 32.5962 50.7209 35.185 50.604 37.6693L53.7697 37.6781C65.4965 37.6989 65.3775 37.9739 65.492 36.6962C65.5666 35.863 65.1672 35.2527 64.5759 34.7494ZM59.818 34.8255C59.5669 34.505 59.2866 33.7415 58.0621 33.603C55.9582 33.3657 57.7758 32.8987 58.8369 33.0927C59.6127 33.2343 60.1699 33.8584 60.2974 34.6015C60.3474 34.8934 60.029 35.0945 59.818 34.8255Z" fill="#38A1FF"/>
<path d="M57.6458 20.624C56.5002 19.6488 55.563 20.3891 55.6557 19.9471C56.0167 18.22 54.1737 17.0966 52.2822 17.41C51.8458 17.4825 51.6556 17.8171 51.5063 17.5861C50.8446 16.5609 49.8803 16.2936 48.741 16.5155C47.3196 16.7923 47.5274 17.6333 47.1686 17.4389C46.6836 17.1758 46.1874 17.0719 45.7253 17.0944C47.1541 18.7152 48.167 20.6817 48.8872 22.7275L49.8772 22.7296C58.3072 22.7444 58.2216 22.9423 58.304 22.0239C58.3579 21.4248 58.0709 20.9856 57.6458 20.624ZM54.2248 20.6785C54.0445 20.4482 53.8434 19.8999 52.9629 19.7999C51.4503 19.6287 52.7569 19.2934 53.5201 19.4329C54.0772 19.5347 54.478 19.983 54.5696 20.5176C54.6055 20.7268 54.3766 20.8719 54.2248 20.6785Z" fill="#38A1FF"/>
<path d="M28.7402 14.5581C28.6521 14.4793 28.5736 14.4148 28.512 14.3662C25.7343 12.1799 24.8233 13.5252 24.6193 12.6624C24.1844 10.8229 21.8967 9.78332 19.772 10.936C19.2733 11.2068 19.5621 10.0362 17.585 9.6516C16.0002 9.34345 14.6584 9.71462 13.7382 11.1409C13.5304 11.4632 13.2659 10.9973 12.6591 10.8969C10.0287 10.4616 7.46516 12.0235 7.96668 14.4268C8.09521 15.0424 6.79181 14.0119 5.19855 15.3681C4.60724 15.8714 4.20823 16.4817 4.2829 17.315C4.39737 18.5923 4.27833 18.3166 16.0048 18.2961C19.8688 18.2895 22.656 18.2729 24.6669 18.2384C25.7654 16.7152 27.1106 15.4509 28.7402 14.5581ZM11.7121 14.2222C10.4869 14.3605 10.2072 15.1237 9.95613 15.4445C9.74516 15.7143 9.42681 15.5122 9.47682 15.2206C9.60428 14.4768 10.1621 13.8534 10.9373 13.7119C11.9984 13.5181 13.816 13.9848 11.7121 14.2222ZM21.9971 13.6481C21.921 13.7633 20.7496 13.1786 19.8428 14.0355C19.2465 14.5986 19.0817 12.9758 20.8091 12.9705C21.6269 12.968 22.1133 13.4717 21.9971 13.6481Z" fill="#38A1FF"/>
<path d="M52.1015 41.9745C51.7701 41.2951 50.7188 41.0912 49.9852 41.1419C49.3922 41.1828 49.6218 41.4103 49.8172 37.8973C50.3585 28.1593 48.4909 15.8926 38.9424 14.0916C38.6959 14.0451 38.6452 13.9598 38.6399 13.7249C38.5934 11.7594 37.5312 9.29527 35.6671 9.21145C33.5759 9.11706 32.4563 11.5091 32.5081 13.6214C32.5331 14.6392 31.0304 13.6094 27.7294 16.0729C23.8601 18.9608 22.0464 24.7499 21.4558 30.5661C21.5692 30.7682 21.6632 30.9834 21.7354 31.2098C21.9696 31.2137 22.2108 31.2387 22.4552 31.2834C23.1254 23.569 25.8731 15.4816 33.616 14.8755C35.7446 14.7086 39.2368 14.8445 41.3273 15.8774C48.6191 19.4813 49.3988 32.6721 48.7755 40.8528C48.7579 41.0863 48.6914 41.1292 48.4758 41.1275C22.4066 40.9313 22.4306 41.5082 22.4052 40.9852C22.3478 39.816 22.3063 38.825 22.2777 37.9762C21.977 37.9833 21.6565 37.9889 21.3149 37.9942C21.3769 39.0074 21.4702 39.9752 21.5892 40.8771C21.6445 41.2965 21.3293 41.0229 20.6183 41.1324C20.0256 41.2236 19.424 41.3233 19.1134 41.9456C18.6411 42.8926 18.4661 43.8776 18.7531 44.9155C19.2092 46.5641 20.5014 46.7602 22.3735 46.7648C32.3257 46.7894 32.5729 46.3189 32.5021 46.8472C31.7492 52.4676 40.4095 52.3052 39.2523 46.656C41.777 46.656 48.6075 47.0226 50.5751 46.6623C52.7287 46.2678 53.0361 43.8899 52.1015 41.9745ZM37.6422 13.9119C35.5217 13.6415 34.089 13.9084 33.4389 13.9408C33.1681 13.9542 33.2569 13.8031 33.2639 13.6792C33.5435 8.76665 37.4657 8.67968 37.8834 13.4795C37.8834 13.7876 37.9471 13.9507 37.6422 13.9119ZM37.4625 49.9238C35.9478 50.9821 33.3456 50.263 33.173 47.6353C33.1565 47.3849 33.1945 47.1303 33.1942 46.8775C33.1935 46.3337 33.6273 46.7595 38.2785 46.6535C38.9586 46.638 39.0614 48.8067 37.4625 49.9238ZM51.4929 45.2557C51.1277 46.1636 49.196 45.9629 36.7994 45.7808C20.7007 45.5445 19.8385 46.8842 19.4589 44.178C19.374 43.5719 19.5026 42.9986 19.7819 42.4464C19.947 42.1196 20.2041 42.016 20.5271 41.9671C20.9138 41.9083 50.6072 41.9903 50.6156 41.991C51.8902 42.1231 51.9814 44.0411 51.4929 45.2557Z" fill="#665252"/>
<path d="M39.8077 31.4721C39.6745 31.1189 40.0063 30.9189 40.2542 31.1189C41.4052 32.0468 43.2745 31.5816 43.6809 30.9383C43.9524 30.5086 44.4437 30.6854 44.3268 31.2284C43.9732 32.8708 40.4102 33.0712 39.8077 31.4721Z" fill="#665252"/>
<path d="M29.1695 32.8554C27.6749 32.8237 26.9557 31.9606 26.9085 31.3647C26.8796 30.9998 27.2385 30.8177 27.5114 31.115C28.3654 32.044 29.9538 32.1849 30.9614 31.4168C31.7766 30.7952 31.7837 32.9111 29.1695 32.8554Z" fill="#665252"/>
<path d="M41.6523 25.3101C43.4238 25.4238 43.8665 26.374 43.5537 26.6748C43.4252 26.7984 43.3125 26.6586 43.2005 26.6086C41.6787 25.9303 40.8032 26.4071 40.675 25.9183C40.5662 25.5034 41.2096 25.308 41.6523 25.3101Z" fill="#665252"/>
<path d="M29.1772 25.1974C29.6012 25.1868 30.233 25.4122 30.1249 25.8073C29.9826 26.3265 29.037 25.769 27.4624 26.5659C26.9201 26.8406 26.8743 25.2555 29.1772 25.1974Z" fill="#665252"/>
<path d="M38.5021 36.507C38.4926 37.3138 37.6777 37.3969 37.4213 36.7559C37.0279 35.7716 38.3113 34.8475 38.5021 36.507Z" fill="#665252"/>
<path d="M12.4344 37.2774C0.707654 37.2979 0.826694 37.574 0.712216 36.2963C0.637552 35.463 1.0366 34.8531 1.6279 34.3495C3.22113 32.9932 4.52453 34.0233 4.39633 33.4081C3.89485 31.0045 6.45797 29.4426 9.08874 29.8782C9.69555 29.9786 9.96002 30.4445 10.1678 30.1226C11.0881 28.6963 12.4295 28.3251 14.0146 28.6333C15.9918 29.0178 15.703 30.1885 16.2017 29.9177C18.3264 28.765 20.6141 29.805 21.049 31.644C21.2529 32.5069 22.164 31.1619 24.9416 33.3479C25.4311 33.7332 26.9462 35.1063 26.301 36.6594C26.102 37.1387 24.6451 37.2559 12.4344 37.2774ZM7.36695 32.6939C6.59217 32.8355 6.03397 33.4588 5.90648 34.2026C5.85647 34.4942 6.17448 34.6963 6.38579 34.4266C6.63688 34.1057 6.91652 33.3426 8.14173 33.2042C10.2456 32.9668 8.42807 32.4998 7.36695 32.6939ZM17.2388 31.9525C15.5114 31.9582 15.6762 33.581 16.2725 33.0175C17.1793 32.1607 18.351 32.7453 18.4267 32.6301C18.5429 32.4537 18.0566 31.9497 17.2388 31.9525Z" fill="#38A1FF"/>
</svg>
