<svg width="81" height="81" viewBox="0 0 81 81" fill="none" xmlns="http://www.w3.org/2000/svg">
<path d="M56.1307 55.2161C56.9956 57.5263 57.1931 60.0332 56.7008 62.4503L61.2908 61.9424L58.734 54.896L56.1307 55.2161Z" fill="#38A1FF"/>
<path d="M21.5411 60.7039L22.2729 62.2859C24.8789 61.783 27.313 60.6218 29.3435 58.9126L30.0868 59.2791C30.0868 59.2791 30.2585 54.3935 28.2318 50.5391C27.05 50.7169 25.9126 51.1177 24.8804 51.7201C24.8804 51.7201 24.2647 54.6664 26.5854 56.7291C26.5854 56.7291 23.8538 60.1055 21.5411 60.7039Z" fill="#38A1FF"/>
<path d="M23.8223 66.0428C23.8223 66.0428 29.312 65.5384 35.5488 61.4543C35.5488 61.4543 37.9305 62.0351 40.0338 62.3306C38.7011 63.8182 37.1369 65.0808 35.4016 66.0697L24.1699 66.877L23.8223 66.0428Z" fill="#38A1FF"/>
<path d="M34.3498 50.6963C34.3498 50.6963 35.4641 55.1506 33.3865 60.7205C33.3865 60.7205 34.2681 61.0137 36.2749 61.5753C36.2749 61.5753 38.9084 56.9393 37.7507 51.581L34.3498 50.6963Z" fill="#38A1FF"/>
<path d="M42.1119 53.0444C42.1119 53.0444 42.4569 59.2211 40.2385 62.2617C41.4411 62.4804 42.654 62.6381 43.8725 62.7343C43.8725 62.7343 46.3182 59.7673 46.1373 54.301C46.1373 54.301 42.1226 53.1326 42.1119 53.0444Z" fill="#38A1FF"/>
<path d="M49.3496 54.9553C49.3496 54.9553 50.4525 59.5132 48.7428 62.995C48.7428 62.995 52.074 62.9566 53.1795 62.7558C53.7538 60.2998 53.8015 57.75 53.3194 55.2743C51.9889 55.2997 50.6591 55.1928 49.3496 54.9553Z" fill="#38A1FF"/>
<path d="M16.5654 53.9741C16.5551 53.9403 16.5351 53.9101 16.5078 53.8874C16.4806 53.8647 16.4474 53.8505 16.4122 53.8464C16.377 53.8424 16.3413 53.8486 16.3097 53.8645C16.278 53.8804 16.2516 53.9052 16.2338 53.9358C15.5411 55.0701 14.5694 56.4926 13.8008 57.5886C13.7817 57.6166 13.7683 57.6481 13.7614 57.6812C13.7545 57.7144 13.7543 57.7486 13.7608 57.7819C13.7672 57.8152 13.7802 57.8468 13.799 57.875C13.8178 57.9033 13.842 57.9275 13.8702 57.9462C14.1967 58.1868 14.5749 58.3479 14.9746 58.4166C17.4183 58.7156 18.3594 55.2579 16.5654 53.9741ZM16.4416 54.3084C16.7106 54.5765 16.9016 54.9128 16.9942 55.2811C17.0867 55.6495 17.0774 56.0361 16.9671 56.3995C16.5927 56.0574 16.1778 55.7625 15.7317 55.5213C15.9757 55.1203 16.2116 54.716 16.4416 54.3084ZM14.3743 57.6511C14.5125 57.441 14.6503 57.2307 14.7875 57.0201C15.0862 57.3432 15.4424 57.608 15.8378 57.801C15.5987 57.8913 15.3419 57.9248 15.0876 57.8987C14.8333 57.8727 14.5901 57.7879 14.3743 57.6511ZM16.2265 57.5809C15.8633 57.226 15.4602 56.9143 15.0252 56.6521C15.1593 56.4432 15.4898 55.9165 15.5235 55.8632C15.8952 56.2564 16.3335 56.5808 16.818 56.8215C16.6841 57.1181 16.4813 57.3785 16.2265 57.5809Z" fill="#191919"/>
<path d="M21.216 59.3696L20.9453 58.6838C20.9264 58.6486 20.899 58.6188 20.8655 58.5971C20.832 58.5753 20.7935 58.5625 20.7537 58.5596C19.9621 58.4906 20.1334 58.4477 18.6151 58.3679C18.8477 58.0235 19.0335 57.6497 19.1674 57.2563C19.1755 57.2336 19.1791 57.2096 19.1779 57.1856C19.1767 57.1615 19.1707 57.138 19.1604 57.1163C19.1501 57.0945 19.1356 57.075 19.1178 57.0589C19.1 57.0428 19.0791 57.0303 19.0565 57.0222C19.0338 57.0141 19.0098 57.0106 18.9858 57.0118C18.9617 57.013 18.9382 57.0189 18.9165 57.0292C18.8947 57.0396 18.8752 57.054 18.8591 57.0719C18.843 57.0897 18.8305 57.1105 18.8224 57.1332C18.1359 58.9299 16.0383 60.4203 14.2504 59.4071C13.1388 58.8049 12.3913 57.712 11.7154 56.6364C11.8748 56.6156 12.0283 56.5632 12.167 56.4822C12.3057 56.4011 12.4268 56.2931 12.5231 56.1645C12.709 55.8933 12.83 55.583 12.8769 55.2576C12.9956 55.5375 13.138 55.8068 13.3024 56.0626C13.3192 56.0922 13.3421 56.118 13.3694 56.1383C13.3968 56.1586 13.4281 56.173 13.4614 56.1805C13.4946 56.1879 13.5291 56.1884 13.5625 56.1817C13.5959 56.1751 13.6276 56.1615 13.6555 56.1419L14.2244 55.6466C14.2606 55.6169 14.2841 55.5742 14.2897 55.5276C14.2954 55.481 14.2829 55.434 14.2548 55.3964C14.2267 55.3588 14.1852 55.3335 14.1389 55.3257C14.0926 55.3179 14.0451 55.3282 14.0062 55.3545L13.616 55.5945C13.3584 55.0429 13.307 54.9474 13.1518 54.668C13.4968 54.3747 14.1504 54.6714 15.0251 54.5967C15.3178 54.586 15.6031 54.5024 15.8552 54.3535C16.1073 54.2045 16.3182 53.9949 16.4688 53.7438C16.869 53.0737 16.8195 52.3024 17.5724 50.9711C17.7537 50.8335 17.5026 50.5548 17.4171 49.8188C17.4139 49.795 17.4061 49.772 17.3939 49.7512C17.3818 49.7304 17.3657 49.7123 17.3466 49.6977C17.3274 49.6832 17.3055 49.6726 17.2823 49.6665C17.259 49.6605 17.2347 49.6591 17.2109 49.6624C16.4509 49.8066 15.7144 50.0552 15.0225 50.4011C13.3288 51.1232 11.7505 52.0904 10.3381 53.2715C10.2781 53.124 10.2068 52.9814 10.125 52.8449C10.1097 52.8004 10.0779 52.7635 10.036 52.7419C9.99424 52.7204 9.94572 52.7158 9.90061 52.7291C9.8555 52.7425 9.8173 52.7727 9.79397 52.8136C9.77063 52.8544 9.76398 52.9027 9.77539 52.9484C9.77361 53.1902 9.82217 53.4297 9.91799 53.6518C9.68197 53.8771 9.46408 54.1206 9.26632 54.3801C9.23728 54.4193 9.21959 54.4657 9.21519 54.5142C9.2108 54.5628 9.21987 54.6116 9.24141 54.6553C9.33639 54.8717 9.44286 55.0828 9.56034 55.2878C9.95307 55.9239 10.5646 56.3946 11.28 56.6115C12.0129 57.9578 12.66 59.1066 13.9913 59.8698C15.553 60.7254 17.2619 60.078 18.367 58.6995C19.0909 58.917 19.8433 59.0249 20.5992 59.0196L20.8852 59.5244C20.9062 59.5677 20.9436 59.6009 20.9891 59.6167C21.0346 59.6325 21.0844 59.6296 21.1278 59.6088C21.1712 59.5879 21.2045 59.5507 21.2206 59.5053C21.2366 59.4599 21.234 59.41 21.2133 59.3665L21.216 59.3696ZM12.8436 52.6394C13.2885 52.266 13.7582 51.923 14.2493 51.6128H14.2577C14.2784 51.5965 14.3029 51.5856 14.3288 51.581C14.3548 51.5764 14.3815 51.5783 14.4065 51.5865C14.4316 51.5946 14.4543 51.6089 14.4725 51.6279C14.4907 51.647 14.504 51.6702 14.5111 51.6956C14.9113 52.5183 14.858 52.9637 14.812 53.1266C14.5713 53.9259 13.7065 54.0083 13.1376 53.4187C12.9969 53.2757 12.8798 53.1112 12.7907 52.9315C12.7668 52.8836 12.759 52.8293 12.7685 52.7766C12.7781 52.724 12.8044 52.6758 12.8436 52.6394ZM10.442 54.7301C10.4239 54.7171 10.4093 54.6999 10.3995 54.6799C10.3896 54.66 10.3848 54.6379 10.3854 54.6157C10.3861 54.5934 10.3921 54.5717 10.4031 54.5523C10.4141 54.533 10.4297 54.5166 10.4485 54.5047V54.4943C10.8251 54.1712 11.223 53.8739 11.6395 53.6042C11.6792 53.5815 11.725 53.5723 11.7704 53.5778C11.8157 53.5833 11.858 53.6033 11.891 53.6349C12.5887 54.2567 12.4721 55.3396 11.5429 55.3342C11.0377 55.3223 10.4803 54.727 10.442 54.7301Z" fill="#191919"/>
<path d="M19.1829 55.2052C19.754 55.3041 20.5307 55.3827 21.0183 55.4119C21.0652 55.4161 21.1087 55.4384 21.1396 55.474C21.1705 55.5097 21.1864 55.5559 21.1839 55.603C21.1815 55.65 21.1609 55.6944 21.1266 55.7266C21.0922 55.7589 21.0466 55.7766 20.9995 55.776C20.3027 55.7642 19.6073 55.7111 18.9168 55.6169C18.8638 55.6079 18.8157 55.5803 18.7812 55.5391C18.7466 55.4979 18.7278 55.4457 18.7282 55.3919C18.7282 54.3569 18.3112 53.1437 18.0083 52.2122C17.9886 52.1508 17.9919 52.0844 18.0176 52.0253C18.0434 51.9662 18.0898 51.9186 18.1483 51.8913C18.6918 51.6391 19.3151 51.1699 19.4401 50.5845C19.4649 50.4964 19.4719 50.4042 19.4605 50.3133C19.4491 50.2225 19.4197 50.1348 19.374 50.0555C19.3282 49.9762 19.267 49.9069 19.194 49.8516C19.1211 49.7963 19.0378 49.7561 18.949 49.7335C18.5379 49.5921 18.09 49.6 17.684 49.7558C17.6441 49.7721 17.5995 49.7723 17.5594 49.7564C17.5193 49.7406 17.4869 49.7099 17.4689 49.6707C17.451 49.6315 17.4488 49.5869 17.463 49.5462C17.4772 49.5054 17.5065 49.4718 17.5449 49.4522C17.8346 49.3213 18.1491 49.2542 18.467 49.2554C18.7849 49.2566 19.0988 49.326 19.3876 49.4591C19.6017 49.572 19.7715 49.7538 19.8695 49.9752C19.9675 50.1965 19.988 50.4444 19.9277 50.6788C19.8337 51.0264 19.6641 51.3488 19.431 51.6232C19.198 51.8976 18.9072 52.1172 18.5795 52.2662C18.9265 53.2102 19.1299 54.2009 19.1829 55.2052Z" fill="#191919"/>
<path d="M4.71694 52.9502C5.07809 53.1369 5.46606 53.2662 5.86694 53.3336C9.24909 53.9181 10.5896 49.8885 13.6225 49.4101C14.0982 49.3063 14.5955 49.3942 15.0068 49.6547C15.0462 49.6804 15.094 49.6899 15.1402 49.6812C15.1865 49.6725 15.2276 49.6464 15.255 49.6082C15.2825 49.57 15.2942 49.5226 15.2876 49.476C15.2811 49.4295 15.2568 49.3872 15.2199 49.358C14.7369 49.0245 14.1434 48.8915 13.5643 48.9869C10.3125 49.3806 8.99341 53.3021 5.92444 52.938C5.55869 52.899 5.20144 52.8023 4.86606 52.6512C4.8266 52.633 4.78159 52.6308 4.74057 52.6452C4.69955 52.6596 4.66575 52.6894 4.64635 52.7283C4.62695 52.7672 4.62347 52.8122 4.63665 52.8536C4.64983 52.895 4.67863 52.9297 4.71694 52.9502Z" fill="#191919"/>
<path d="M4.40147 50.6736C4.61134 50.946 4.8793 51.1682 5.18587 51.3239C5.49243 51.4797 5.82987 51.5652 6.17362 51.5741C7.17228 51.5593 8.13405 51.1944 8.89107 50.5429C8.91035 50.5287 8.92665 50.5109 8.93904 50.4904C8.95143 50.47 8.95967 50.4472 8.96328 50.4236C8.96689 50.3999 8.96581 50.3758 8.9601 50.3526C8.95439 50.3293 8.94415 50.3074 8.92998 50.2882C8.91581 50.2689 8.89798 50.2526 8.87751 50.2402C8.85704 50.2278 8.83433 50.2196 8.81068 50.216C8.78702 50.2123 8.76289 50.2134 8.73965 50.2191C8.71642 50.2249 8.69454 50.2351 8.67525 50.2493C8.05509 50.6583 7.35119 50.9233 6.61522 51.0247C6.2653 51.0832 5.90668 51.0619 5.56616 50.9623C5.22564 50.8628 4.91202 50.6875 4.64872 50.4497C4.61824 50.4202 4.57768 50.4034 4.53527 50.4027C4.49285 50.402 4.45176 50.4175 4.42031 50.4459C4.38887 50.4744 4.36942 50.5138 4.36593 50.5561C4.36243 50.5983 4.37513 50.6404 4.40147 50.6736Z" fill="#191919"/>
<path d="M15.9275 47.1063C16.1003 47.0638 16.2778 47.0436 16.4557 47.0462C17.59 47.06 18.2693 47.8128 18.3532 48.9525C18.3571 49.0008 18.3415 49.0486 18.3101 49.0854C18.2786 49.1223 18.2338 49.1451 18.1855 49.1489C18.1372 49.1528 18.0894 49.1372 18.0526 49.1058C18.0157 49.0743 17.9929 49.0295 17.9891 48.9812C17.9059 48.0789 17.3865 47.4701 16.4557 47.4862C16.2717 47.4877 16.0892 47.5209 15.9164 47.5844C15.8709 47.6006 15.8215 47.6019 15.7752 47.5881C15.729 47.5743 15.6883 47.5462 15.6592 47.5077C15.2058 46.9275 14.5651 46.5226 13.8465 46.3623C13.1279 46.202 12.3758 46.2962 11.7189 46.6287C10.0629 47.3923 9.50438 48.7267 8.28998 49.427C7.10739 50.1098 5.31301 49.9403 4.37308 48.9176C4.34258 48.8853 4.32617 48.8421 4.32746 48.7977C4.32876 48.7533 4.34765 48.7112 4.37998 48.6807C4.41231 48.6502 4.45543 48.6338 4.49986 48.6351C4.54428 48.6364 4.58638 48.6553 4.61688 48.6876C5.06722 49.1175 5.65749 49.3707 6.27939 49.4006C8.80058 49.6064 9.05166 47.2639 11.4989 46.1476C12.3874 45.7189 13.4095 45.6595 14.3417 45.9824C14.9732 46.1853 15.5269 46.5777 15.9275 47.1063Z" fill="#191919"/>
<path d="M66.8362 50.5989C66.4262 51.6222 65.8045 52.5472 65.0119 53.3133C64.976 53.3441 64.9534 53.3876 64.9489 53.4346C64.9445 53.4817 64.9584 53.5287 64.9879 53.5656C65.0174 53.6026 65.06 53.6267 65.1069 53.6328C65.1538 53.639 65.2012 53.6267 65.2392 53.5985C65.7444 53.2753 66.1761 52.8497 66.5062 52.3491C66.8364 51.8484 67.0577 51.2841 67.1559 50.6925C67.1643 50.6514 67.1569 50.6087 67.1353 50.5728C67.1136 50.5369 67.0793 50.5104 67.0391 50.4987C66.9988 50.4869 66.9557 50.4907 66.9181 50.5092C66.8805 50.5278 66.8513 50.5598 66.8362 50.5989Z" fill="#191919"/>
<path d="M67.9628 50.8696C67.5734 51.7896 66.7523 53.262 65.9565 53.9201C65.9182 53.9498 65.8933 53.9935 65.8872 54.0416C65.8811 54.0896 65.8944 54.1381 65.9241 54.1764C65.9538 54.2147 65.9974 54.2396 66.0455 54.2457C66.0935 54.2517 66.142 54.2385 66.1803 54.2088C67.4193 53.3083 67.9145 52.4071 68.2791 50.9758C68.2932 50.9338 68.29 50.888 68.2703 50.8484C68.2506 50.8088 68.216 50.7786 68.174 50.7645C68.1321 50.7505 68.0863 50.7536 68.0467 50.7733C68.0071 50.793 67.9769 50.8276 67.9628 50.8696Z" fill="#191919"/>
<path d="M69.0361 51.4035C68.3845 53.5601 66.3911 56.3393 64.2977 57.2896C64.2535 57.309 64.2188 57.3452 64.2013 57.3902C64.1837 57.4352 64.1848 57.4853 64.2042 57.5295C64.2236 57.5737 64.2598 57.6084 64.3048 57.626C64.3498 57.6435 64.4 57.6425 64.4442 57.6231C66.9995 56.544 68.6681 54.1604 69.3577 51.4932C69.3673 51.4513 69.3604 51.4073 69.3384 51.3704C69.3164 51.3335 69.2811 51.3065 69.2397 51.295C69.1983 51.2834 69.1541 51.2883 69.1162 51.3085C69.0783 51.3287 69.0496 51.3627 69.0361 51.4035Z" fill="#191919"/>
<path d="M67.497 56.0582C65.6838 57.8817 62.7609 59.0317 60.5283 58.9443C60.1578 57.9558 59.7989 56.9617 59.4516 55.962C59.7582 55.9443 60.2247 55.8953 60.5207 55.8543C60.8703 55.8056 60.4823 55.3088 61.3222 54.4654C62.657 53.1311 65.7332 52.6024 65.9751 50.1602C65.979 50.1133 65.9646 50.0666 65.9349 50.0301C65.9052 49.9935 65.8625 49.9698 65.8157 49.964C65.769 49.9582 65.7218 49.9708 65.684 49.999C65.6463 50.0272 65.6209 50.0689 65.6133 50.1154C65.218 52.8171 60.6683 52.7117 60.2949 55.4686C59.9936 55.5269 59.6432 55.5921 59.3366 55.6289C59.2305 55.3222 59.125 55.0162 59.0199 54.7108C58.998 54.6469 58.9525 54.5937 58.8927 54.5623C58.8329 54.5309 58.7634 54.5235 58.6983 54.5417C57.316 54.935 55.918 54.9362 54.4816 54.9868C46.797 55.2578 42.026 52.1233 34.9339 50.5018C29.9234 49.3587 24.6472 50.087 21.5556 54.1929C21.534 54.2215 21.5198 54.2551 21.5144 54.2906C21.5091 54.3261 21.5127 54.3623 21.5249 54.3961C22.2483 56.3859 22.67 58.8163 21.3064 60.427C21.2827 60.4551 21.2671 60.4891 21.2614 60.5254C21.2558 60.5618 21.2602 60.5989 21.2742 60.6329C21.8876 62.1022 23.6613 66.2897 23.9192 66.9196C23.9387 66.9624 23.9739 66.9961 24.0176 67.0135C24.0613 67.031 24.1101 67.0309 24.1537 67.0133C24.1973 66.9957 24.2324 66.9619 24.2518 66.919C24.2711 66.8761 24.2731 66.8274 24.2573 66.7831C24.0013 66.1494 22.2801 62.024 21.689 60.5896C23.0564 58.8857 22.693 56.4308 21.9692 54.36C24.9715 50.5025 30.0323 49.8651 34.8274 50.9771C41.9474 52.6254 46.7 55.7845 54.5023 55.515C55.88 55.5308 57.2553 55.397 58.604 55.116C59.3841 57.3845 60.1646 59.558 61.0792 61.7768C52.3177 63.0766 43.5892 63.2189 35.0739 61.0615C32.6012 60.3971 30.2561 59.3266 28.1344 57.8936C28.1168 57.8806 28.0967 57.8711 28.0755 57.8658C28.0542 57.8605 28.0321 57.8594 28.0104 57.8627C27.9887 57.8659 27.9679 57.8734 27.9491 57.8847C27.9303 57.896 27.914 57.9109 27.9009 57.9285C27.8879 57.9461 27.8784 57.9661 27.8731 57.9874C27.8678 58.0086 27.8668 58.0307 27.87 58.0524C27.8733 58.0741 27.8807 58.0949 27.892 58.1137C27.9033 58.1325 27.9182 58.1489 27.9358 58.1619C30.0825 59.6373 32.46 60.7446 34.9707 61.4383C36.5984 61.8615 38.2302 62.2037 39.8663 62.4648C40.1809 63.3746 40.5809 64.2527 41.0608 65.0872C41.0802 65.1301 41.1155 65.1637 41.1591 65.1812C41.2028 65.1987 41.2516 65.1986 41.2952 65.181C41.3388 65.1634 41.374 65.1296 41.3933 65.0867C41.4126 65.0438 41.4146 64.9951 41.3989 64.9508C41.1403 64.1071 40.7823 63.2971 40.3324 62.5381C47.372 63.6114 54.4103 63.2898 61.4809 62.2452C61.5203 62.2394 61.5578 62.2247 61.5906 62.2021C61.6234 62.1795 61.6505 62.1496 61.6699 62.1149C61.7753 61.9282 61.7082 62.0635 60.6683 59.3196C63.2853 59.558 65.9123 58.3103 67.7599 56.3089C67.7894 56.2734 67.8043 56.228 67.8017 56.182C67.799 56.1359 67.7789 56.0926 67.7455 56.0607C67.7121 56.0289 67.6679 56.0109 67.6217 56.0104C67.5756 56.01 67.531 56.027 67.497 56.0582Z" fill="#191919"/>
<path d="M32.9035 17.8444C32.8916 17.5238 32.7876 17.2134 32.6039 16.9504C32.4203 16.6874 32.1647 16.4829 31.8678 16.3613C31.571 16.2398 31.2453 16.2063 30.93 16.265C30.6146 16.3236 30.3228 16.4719 30.0894 16.6921C29.9327 16.8429 29.8075 17.0233 29.721 17.2229C29.6344 17.4225 29.5884 17.6372 29.5855 17.8547C29.5826 18.0722 29.6228 18.2881 29.7039 18.4899C29.785 18.6917 29.9054 18.8754 30.058 19.0304C30.2906 19.2665 30.5885 19.4277 30.9133 19.4932C31.2382 19.5587 31.5753 19.5256 31.8812 19.3981C32.1871 19.2706 32.4479 19.0545 32.6301 18.7777C32.8122 18.5008 32.9075 18.1758 32.9035 17.8444ZM31.2394 19.0001C31.043 19.0002 30.8497 18.9515 30.6767 18.8585C30.5037 18.7655 30.3565 18.6311 30.2481 18.4673C30.1398 18.3034 30.0738 18.1153 30.0559 17.9197C30.0381 17.7241 30.069 17.5272 30.1459 17.3464C30.2228 17.1657 30.3434 17.0069 30.4967 16.8841C30.65 16.7614 30.8314 16.6786 31.0245 16.6431C31.2177 16.6075 31.4166 16.6205 31.6036 16.6807C31.7905 16.7409 31.9597 16.8465 32.0958 16.988C32.2533 17.1574 32.3584 17.3689 32.3983 17.5967C32.4382 17.8246 32.4112 18.0591 32.3206 18.272C32.23 18.4848 32.0797 18.6669 31.8878 18.7961C31.6959 18.9253 31.4707 18.9962 31.2394 19.0001Z" fill="#191919"/>
<path d="M37.5683 18.4679C37.5567 18.147 37.4528 17.8363 37.269 17.5729C37.0853 17.3096 36.8295 17.1049 36.5323 16.9833C36.2351 16.8617 35.9092 16.8283 35.5936 16.8873C35.2779 16.9462 34.986 17.0949 34.7527 17.3156C34.596 17.4664 34.4707 17.6467 34.3841 17.8463C34.2976 18.0459 34.2515 18.2606 34.2486 18.4781C34.2456 18.6956 34.2858 18.9115 34.3669 19.1133C34.448 19.3152 34.5683 19.4989 34.7209 19.6539C34.9535 19.8905 35.2515 20.0521 35.5766 20.1179C35.9018 20.1837 36.2392 20.1507 36.5454 20.0231C36.8517 19.8956 37.1127 19.6793 37.295 19.4021C37.4773 19.125 37.5725 18.7996 37.5683 18.4679ZM35.9058 19.6236C35.7094 19.6236 35.5161 19.5749 35.3432 19.4818C35.1703 19.3888 35.0231 19.2544 34.9148 19.0906C34.8065 18.9268 34.7405 18.7387 34.7226 18.5432C34.7048 18.3476 34.7357 18.1507 34.8126 17.97C34.8895 17.7893 35.01 17.6305 35.1632 17.5077C35.3165 17.385 35.4978 17.3021 35.6909 17.2666C35.8841 17.231 36.083 17.2439 36.2699 17.304C36.4568 17.3641 36.626 17.4696 36.7622 17.6111C36.9196 17.7806 37.0246 17.992 37.0645 18.2199C37.1044 18.4478 37.0774 18.6823 36.9868 18.8952C36.8962 19.108 36.7459 19.2901 36.5541 19.4194C36.3623 19.5486 36.1371 19.6196 35.9058 19.6236Z" fill="#665252"/>
<path d="M42.2691 19.1381C42.2573 18.8173 42.1533 18.5066 41.9695 18.2433C41.7858 17.98 41.5299 17.7753 41.2328 17.6537C40.9356 17.5321 40.6096 17.4987 40.294 17.5576C39.9784 17.6166 39.6864 17.7652 39.4531 17.9858C39.2964 18.1367 39.1711 18.3171 39.0846 18.5166C38.9981 18.7162 38.952 18.931 38.9491 19.1484C38.9462 19.3659 38.9865 19.5818 39.0676 19.7837C39.1487 19.9855 39.269 20.1692 39.4217 20.3242C39.6542 20.5608 39.9522 20.7224 40.2774 20.7882C40.6025 20.854 40.9399 20.821 41.2462 20.6934C41.5524 20.5658 41.8135 20.3496 41.9958 20.0724C42.178 19.7952 42.2732 19.4699 42.2691 19.1381ZM40.6062 20.2939C40.4098 20.2938 40.2165 20.2451 40.0436 20.1521C39.8706 20.0591 39.7234 19.9247 39.6151 19.7609C39.5068 19.5971 39.4408 19.409 39.423 19.2134C39.4052 19.0179 39.4361 18.821 39.513 18.6403C39.5899 18.4596 39.7103 18.3008 39.8636 18.178C40.0169 18.0553 40.1982 17.9724 40.3913 17.9369C40.5844 17.9013 40.7833 17.9142 40.9703 17.9743C41.1572 18.0344 41.3263 18.1399 41.4625 18.2814C41.62 18.4509 41.725 18.6623 41.7649 18.8902C41.8047 19.118 41.7777 19.3526 41.6872 19.5654C41.5966 19.7783 41.4463 19.9604 41.2545 20.0896C41.0626 20.2189 40.8375 20.2899 40.6062 20.2939Z" fill="#665252"/>
<path d="M40.976 37.7645C40.976 37.7645 40.6456 37.6687 40.127 37.5219C40.5737 35.6501 40.8577 33.7432 40.976 31.8225C40.994 31.7425 40.9959 31.6597 40.9816 31.579C40.9674 31.4983 40.9372 31.4212 40.893 31.3522C40.8487 31.2832 40.7912 31.2237 40.7238 31.177C40.6564 31.1304 40.5804 31.0976 40.5002 31.0806C40.42 31.0635 40.3373 31.0625 40.2567 31.0777C40.1762 31.0928 40.0994 31.1238 40.0309 31.1688C39.9624 31.2138 39.9035 31.2719 39.8576 31.3399C39.8117 31.4078 39.7797 31.4841 39.7636 31.5645C39.1031 33.3299 38.5937 35.1482 38.2406 36.9998C37.0522 36.6785 36.1491 36.4485 34.9546 36.1725C35.453 34.5625 35.913 32.6842 36.2668 31.0228C36.3141 30.8676 36.2987 30.7 36.2238 30.556C36.149 30.4119 36.0208 30.3029 35.8665 30.2524C35.7123 30.2018 35.5444 30.2136 35.3988 30.2853C35.2532 30.3571 35.1415 30.483 35.0877 30.6361C34.2072 32.5785 33.4293 34.5657 32.757 36.5896C32.7147 36.7205 32.7004 36.8587 32.7148 36.9955C32.7292 37.1322 32.7721 37.2644 32.8407 37.3836C32.9093 37.5028 33.0021 37.6062 33.1131 37.6874C33.2242 37.7685 33.351 37.8255 33.4853 37.8546C35.042 38.1881 36.5658 38.4538 37.9508 38.6742C37.6794 40.3946 37.5368 41.7454 37.5368 41.7454C37.5167 41.833 37.5142 41.9236 37.5294 42.0121C37.5447 42.1007 37.5774 42.1852 37.6257 42.261C37.6739 42.3367 37.7368 42.4021 37.8106 42.4533C37.8844 42.5045 37.9676 42.5405 38.0554 42.5592C38.1433 42.578 38.234 42.579 38.3222 42.5623C38.4105 42.5457 38.4945 42.5116 38.5695 42.4621C38.6444 42.4126 38.7088 42.3487 38.7588 42.2741C38.8088 42.1995 38.8435 42.1157 38.8608 42.0276C38.8608 42.0276 39.2986 40.6832 39.7628 38.9521C40.3274 39.0357 40.6916 39.0866 40.6916 39.0866C40.7793 39.1074 40.8703 39.1104 40.9592 39.0955C41.048 39.0806 41.133 39.0482 41.2092 39C41.2854 38.9518 41.3512 38.889 41.4027 38.815C41.4543 38.7411 41.4905 38.6576 41.5094 38.5695C41.5282 38.4814 41.5293 38.3904 41.5125 38.3019C41.4958 38.2133 41.4615 38.129 41.4117 38.0539C41.3619 37.9788 41.2976 37.9143 41.2226 37.8644C41.1476 37.8144 41.0646 37.7815 40.976 37.7645Z" fill="#191919"/>
<path d="M62.6084 41.4153C62.6084 41.4153 62.2784 41.3195 61.7597 41.1727C62.207 39.3009 62.4916 37.394 62.6103 35.4733C62.6425 35.3132 62.6104 35.147 62.5207 35.0106C62.4311 34.8742 62.2913 34.7786 62.1317 34.7446C61.972 34.7107 61.8054 34.741 61.668 34.8291C61.5307 34.9173 61.4336 35.056 61.3978 35.2153C60.7371 36.9806 60.2274 38.7989 59.8745 40.6506C58.6861 40.3289 57.7845 40.0997 56.5885 39.8233C57.0869 38.2083 57.5469 36.3262 57.9007 34.6732C57.9519 34.5169 57.939 34.3466 57.8646 34.1998C57.7903 34.053 57.6607 33.9417 57.5043 33.8905C57.348 33.8392 57.1777 33.8522 57.0309 33.9265C56.8841 34.0009 56.7728 34.1305 56.7216 34.2868C55.8408 36.2291 55.0628 38.2164 54.3909 40.2404C54.3486 40.3712 54.3342 40.5095 54.3485 40.6463C54.3629 40.783 54.4058 40.9153 54.4744 41.0345C54.5431 41.1536 54.6359 41.2571 54.7469 41.3382C54.858 41.4193 54.9848 41.4763 55.1192 41.5054C56.6725 41.8381 58.1951 42.1038 59.5847 42.325C59.3133 44.0454 59.1711 45.3962 59.1711 45.3962C59.1509 45.4838 59.1484 45.5744 59.1637 45.6629C59.1789 45.7514 59.2117 45.836 59.2599 45.9118C59.3082 45.9875 59.3711 46.0529 59.4449 46.1041C59.5186 46.1553 59.6019 46.1913 59.6897 46.21C59.7776 46.2287 59.8683 46.2298 59.9565 46.2131C60.0448 46.1964 60.1288 46.1624 60.2038 46.1129C60.2787 46.0634 60.3431 45.9995 60.3931 45.9249C60.4431 45.8503 60.4778 45.7665 60.4951 45.6784C60.4951 45.6784 60.9329 44.334 61.3967 42.6029C61.9613 42.6864 62.3259 42.7374 62.3259 42.7374C62.4128 42.756 62.5025 42.7573 62.5899 42.7412C62.6773 42.7251 62.7607 42.6919 62.8353 42.6436C62.9099 42.5953 62.9742 42.5327 63.0247 42.4595C63.0751 42.3864 63.1106 42.304 63.1292 42.217C63.1477 42.1301 63.149 42.0404 63.1329 41.953C63.1168 41.8656 63.0837 41.7822 63.0353 41.7076C62.987 41.633 62.9245 41.5687 62.8513 41.5183C62.7781 41.4679 62.6953 41.4339 62.6084 41.4153Z" fill="#191919"/>
<path d="M52.4933 35.3264C52.3972 34.8024 52.1982 34.3027 51.9076 33.8562C51.6171 33.4097 51.2409 33.0253 50.8007 32.7252C50.3606 32.4251 49.8653 32.2153 49.3435 32.108C48.8218 32.0007 48.2839 31.9979 47.761 32.0999C46.9436 32.2538 46.1916 32.6508 45.6035 33.239C45.0153 33.8271 44.6183 34.5791 44.4644 35.3965L43.7744 39.1149C43.6769 39.6632 43.6887 40.2253 43.8091 40.769C43.9295 41.3127 44.1561 41.8272 44.4759 42.2831C44.7916 42.7334 45.1935 43.1165 45.6583 43.4104C46.1231 43.7043 46.6415 43.9031 47.1836 43.9953C47.7257 44.0876 48.2808 44.0714 48.8166 43.9477C49.3524 43.824 49.8584 43.5953 50.3052 43.2748C50.7414 42.9599 51.1112 42.562 51.3934 42.104C51.6757 41.646 51.8649 41.1368 51.9501 40.6057L52.5151 36.8647C52.6083 36.3554 52.6009 35.8328 52.4933 35.3264ZM51.1873 36.6224C50.3439 40.5562 50.3922 40.644 50.0101 41.201C49.6443 41.7241 49.0873 42.0822 48.4595 42.1976C47.8526 42.31 47.2259 42.1807 46.713 41.8375C46.2001 41.4942 45.8416 40.9642 45.714 40.3603C45.5879 39.7547 45.696 39.6496 46.3768 35.7438C46.4627 35.2781 46.6821 34.8474 47.0084 34.5042C47.3347 34.161 47.7538 33.9201 48.2146 33.8108C48.6754 33.7016 49.158 33.7287 49.6037 33.8889C50.0494 34.0491 50.4388 34.3354 50.7246 34.7131C50.9396 34.9765 51.0928 35.2847 51.1729 35.6152C51.2529 35.9456 51.2579 36.2898 51.1873 36.6224Z" fill="#665252"/>
<path d="M24.7994 49.8146C24.3461 49.7963 23.9034 49.672 23.5068 49.4516C23.0326 49.1828 22.6515 48.776 22.4143 48.2852C22.177 47.7945 22.0948 47.2432 22.1786 46.7046L26.8311 16.6861C26.9366 16.0044 27.3079 15.3923 27.8638 14.9839C28.4198 14.5755 29.1149 14.4041 29.7969 14.5073C76.9734 21.6821 74.5645 21.0623 75.4086 21.569C75.8519 21.8355 76.2062 22.2274 76.4268 22.6952C76.6473 23.163 76.7243 23.6857 76.648 24.1972L72.245 53.6882C72.1414 54.3796 71.7709 55.0028 71.2131 55.4242C70.6553 55.8456 69.9545 56.0315 69.2611 55.9422L68.2974 55.8176C68.2499 55.8122 68.2023 55.8258 68.1647 55.8552C68.1271 55.8847 68.1026 55.9278 68.0965 55.9751C68.0903 56.0225 68.1031 56.0704 68.1319 56.1085C68.1607 56.1465 68.2034 56.1718 68.2507 56.1787L69.2132 56.3071C70.0039 56.4113 70.804 56.2015 71.4418 55.7227C72.0796 55.2438 72.5043 54.5341 72.6249 53.7457L77.1267 24.2673C77.2501 23.4533 77.0452 22.6236 76.5569 21.9607C76.0687 21.2978 75.3371 20.8559 74.5231 20.7322C70.1094 20.0637 34.2862 14.6598 29.874 13.9997C29.0587 13.8775 28.2283 14.0838 27.565 14.5733C26.9017 15.0628 26.4597 15.7956 26.3362 16.6106L21.8236 46.649C21.732 47.2583 21.8281 47.8811 22.0991 48.4345C22.37 48.9879 22.803 49.4458 23.3405 49.7471C23.7788 49.9856 24.2656 50.1214 24.7642 50.1442C24.8053 50.1442 24.8449 50.1289 24.8755 50.1014C24.906 50.0739 24.9253 50.0361 24.9297 49.9952C24.9341 49.9544 24.9232 49.9133 24.8991 49.88C24.8751 49.8466 24.8396 49.8233 24.7994 49.8146Z" fill="#665252"/>
<path d="M26.1204 20.1707L76.4103 27.5625C76.457 27.5673 76.5038 27.5538 76.5409 27.5249C76.5779 27.496 76.6024 27.4539 76.6092 27.4074C76.6161 27.361 76.6047 27.3136 76.5775 27.2753C76.5503 27.237 76.5093 27.2107 76.4632 27.2018L26.1698 19.8418C26.1278 19.8386 26.0862 19.8514 26.0533 19.8777C26.0204 19.9039 25.9986 19.9416 25.9923 19.9833C25.9861 20.0249 25.9958 20.0674 26.0195 20.1021C26.0433 20.1369 26.0793 20.1614 26.1204 20.1707Z" fill="#191919"/>
</svg>
